HIERARCHY
ROOT Hips
{
  OFFSET 0 89.5177 0.535
  CHANNELS 6 Xposition Yposition Zposition Zrotation Xrotation Yrotation
  JOINT Spine
  {
    OFFSET 12.0259 -0.162855 1.69034e-005
    CHANNELS 3 Zrotation Xrotation Yrotation
    JOINT Spine1
    {
      OFFSET 15.3169 -0.0121922 0
      CHANNELS 3 Zrotation Xrotation Yrotation
      JOINT Spine2
      {
        OFFSET 15.3176 -0.0121908 0
        CHANNELS 3 Zrotation Xrotation Yrotation
        JOINT Neck
        {
          OFFSET 19.9142 1.56338 0
          CHANNELS 3 Zrotation Xrotation Yrotation
          JOINT Head
          {
            OFFSET 6.92651 0 0
            CHANNELS 3 Zrotation Xrotation Yrotation
            End Site
            {
              OFFSET 20.7666 0 0
            }
          }
          JOINT LeftShoulder
          {
            OFFSET -6.20654 0.708824 7.28219
            CHANNELS 3 Zrotation Xrotation Yrotation
            JOINT LeftArm
            {
              OFFSET 14.108 0 -1.52588e-005
              CHANNELS 3 Zrotation Xrotation Yrotation
              JOINT LeftForeArm
              {
                OFFSET 28.5802 0 0
                CHANNELS 3 Zrotation Xrotation Yrotation
                JOINT LeftHand
                {
                  OFFSET 27.092 0 0
                  CHANNELS 3 Zrotation Xrotation Yrotation
                  End Site
                  {
                    OFFSET 9.55928 -0.186424 0.145352
                  }
                }
              }
            }
          }
          JOINT RightShoulder
          {
            OFFSET -6.20654 0.708866 -7.28218
            CHANNELS 3 Zrotation Xrotation Yrotation
            JOINT RightArm
            {
              OFFSET 14.108 0 1.52588e-005
              CHANNELS 3 Zrotation Xrotation Yrotation
              JOINT RightForeArm
              {
                OFFSET 28.5802 0 0
                CHANNELS 3 Zrotation Xrotation Yrotation
                JOINT RightHand
                {
                  OFFSET 27.092 0 0
                  CHANNELS 3 Zrotation Xrotation Yrotation
                  End Site
                  {
                    OFFSET 9.55929 -0.186417 -0.145354
                  }
                }
              }
            }
          }
        }
      }
    }
  }
  JOINT LeftUpLeg
  {
    OFFSET 0.005 -0.535 8.837
    CHANNELS 3 Zrotation Xrotation Yrotation
    JOINT LeftLeg
    {
      OFFSET 39.9035 0 0
      CHANNELS 3 Zrotation Xrotation Yrotation
      JOINT LeftFoot
      {
        OFFSET 39.6689 0 0
        CHANNELS 3 Zrotation Xrotation Yrotation
        JOINT LeftToe
        {
          OFFSET 10.1624 13.6296 0
          CHANNELS 3 Zrotation Xrotation Yrotation
          End Site
          {
            OFFSET 8.38147 0 0
          }
        }
      }
    }
  }
  JOINT RightUpLeg
  {
    OFFSET 0.005 -0.535 -8.837
    CHANNELS 3 Zrotation Xrotation Yrotation
    JOINT RightLeg
    {
      OFFSET 39.9035 0 0
      CHANNELS 3 Zrotation Xrotation Yrotation
      JOINT RightFoot
      {
        OFFSET 39.6689 0 0
        CHANNELS 3 Zrotation Xrotation Yrotation
        JOINT RightToe
        {
          OFFSET 10.1624 13.6296 0
          CHANNELS 3 Zrotation Xrotation Yrotation
          End Site
          {
            OFFSET 8.38147 0 0
          }
        }
      }
    }
  }
}
MOTION
Frames:	8
Frame Time:	0.0333333
506.929 76.8016 -185.951 122.443 6.42278 -1.4482 0.566456 2.55613 -2.70634 1.25509 5.08295 -5.44577 1.25509 5.08295 -5.44578 -8.31782e-012 -9.0191e-006 -5.27751e-005 -19.7651 21.8532 -9.98037 178.101 6.56055 -73.8188 -40.9194 4.80865 60.1917 -47.7037 3.18055e-015 9.54166e-015 -34.876 -43.6788 -26.2993 179.585 -2.74619 81.3989 -49.8364 28.6546 -59.6771 -43.523 -1.59028e-015 -6.36111e-015 -34.1121 52.7096 30.3007 -71.5945 -1.77608 -164.337 -40.7955 0 -0 5.73716 15.2989 -16.3616 90 -6.21202e-018 -3.97569e-016 -44.8879 0.728124 157.601 -53.104 1.59028e-015 3.18056e-015 37.7429 3.8885 4.91006 90 -1.59028e-015 -7.95139e-016 
506.552 75.9363 -188.976 119.805 7.77645 -1.61978 0.661468 2.34332 -2.33713 1.41988 4.65799 -4.70688 1.41988 4.65799 -4.70689 -8.29873e-012 -9.0191e-006 -5.27751e-005 -17.4975 23.1582 -11.1438 178.575 4.70387 -73.1227 -35.3291 5.99392 58.7582 -49.5775 -3.18055e-015 -0 -37.4523 -43.6504 -28.6647 179.617 -1.9391 78.8314 -34.4436 24.4336 -66.0268 -34.508 -6.36111e-015 -0 -36.0304 49.2847 32.0951 -68.2079 -3.92288 -163.27 -38.9243 -1.59028e-015 -0 4.03992 15.7629 -18.7034 90 0 3.97569e-016 -46.2991 2.55365 157.135 -55.543 4.77083e-015 -0 36.3969 2.83155 13.7779 90 7.95139e-016 -0 
506.137 75.1623 -192.408 117.11 10.5859 -2.38171 0.780922 1.96804 -2.02544 1.63243 3.9075 -4.08095 1.63243 3.9075 -4.08096 -8.29635e-012 -9.0191e-006 -5.27751e-005 -15.6015 23.4337 -11.0719 179.108 2.83699 -72.5472 -28.9112 6.67989 56.6251 -51.7933 -1.59028e-015 -0 -39.4046 -42.9514 -30.1638 179.759 -1.08298 77.4338 -19.0796 21.8808 -69.8971 -25.5032 9.54166e-015 3.18055e-015 -38.1774 46.6724 35.175 -64.0279 -7.13313 -162.807 -35.2613 -3.18055e-015 -3.18055e-015 1.90792 16.0205 -21.4052 90 -1.21329e-020 1.98785e-016 -46.2399 -0.469596 158.486 -61.7685 0 -3.18056e-015 39.8674 3.91749 8.91522 90 3.18055e-015 -1.98785e-016 
505.587 74.5807 -195.896 114.754 13.517 -3.09603 0.854235 1.72833 -1.93866 1.76769 3.42704 -3.90536 1.76769 3.42704 -3.90537 -8.31225e-012 -9.0191e-006 -5.27751e-005 -14.0309 22.1194 -9.56121 179.688 0.98063 -72.36 -22.3455 6.68189 53.9215 -54.7218 1.59028e-015 -3.97569e-016 -41.4811 -41.9872 -31.6661 179.97 -0.126709 76.7689 -10.9361 16.5035 -69.1233 -22.6132 9.54166e-015 1.98785e-015 -33.2462 45.0141 30.868 -58.8989 -10.9593 -162.098 -29.9469 -6.36111e-015 -6.36111e-015 -0.216158 15.1648 -24.5284 90 1.21329e-020 -0 -44.8006 -4.55194 159.164 -64.5327 0 3.18056e-015 42.1319 4.11167 9.39143 90 0 -3.97569e-016 
505.146 74.1077 -199.262 113.055 15.382 -3.52509 0.792656 1.71963 -1.97155 1.64516 3.41126 -3.9692 1.64516 3.41126 -3.96921 -8.30032e-012 -9.0191e-006 -5.27751e-005 -12.7481 20.4414 -8.31721 -179.611 -1.19386 -71.9433 -16.0305 5.6515 51.0697 -58.1914 -7.95139e-016 -0 -43.9334 -42.3573 -34.1828 -179.684 1.30076 76.3457 -9.10869 10.135 -66.0148 -22.3422 -6.36111e-015 7.95139e-016 -24.3195 44.4919 23.3039 -53.7817 -13.2484 -160.361 -23.5335 1.59028e-015 -6.36111e-015 -3.52215 13.2988 -27.0187 90 -2.42657e-020 2.48481e-017 -43.8289 -7.53248 160.367 -66.3647 0 -1.59028e-015 43.9176 3.59626 10.1272 90 -3.97569e-016 3.97569e-016 
504.831 74.259 -202.283 111.7 16.6599 -3.99051 0.700385 1.77522 -1.94527 1.46173 3.52596 -3.91474 1.46173 3.52596 -3.91475 -8.30907e-012 -9.0191e-006 -5.27751e-005 -11.9296 19.3834 -8.07603 -178.711 -3.80303 -71.2585 -10.1861 3.46218 49.1652 -62.109 4.77083e-015 3.18055e-015 -45.9972 -43.1543 -36.5541 -179.374 2.44814 75.6637 -9.1549 3.41181 -62.2555 -23.8958 -9.54166e-015 -7.95139e-016 -18.5896 46.8555 19.1733 -49.6135 -9.97753 -158.086 -15.5506 0 -3.18055e-015 -8.88423 12.368 -27.0487 90 0 -2.38542e-015 -42.85 -10.0124 162.492 -67.1411 -1.59028e-015 -0 44.8083 3.72937 7.85303 90 3.97569e-016 -3.97569e-016 
504.458 75.1094 -204.775 110.781 19.2286 -3.89846 0.616604 1.70748 -2.04077 1.29453 3.39226 -4.10235 1.29453 3.39226 -4.10236 -8.30748e-012 -9.0191e-006 -5.27751e-005 -11.3065 17.7692 -7.97045 -178.157 -5.5361 -71.5558 -4.9911 1.20836 49.4103 -65.6317 -5.56597e-015 -1.27222e-014 -46.6052 -42.3145 -36.5784 -178.967 3.82169 74.8684 -8.52078 -2.75355 -59.4147 -25.6014 0 3.18055e-015 -19.9947 48.2968 20.4033 -54.5873 -0.609891 -158.741 -21.9864 -6.36111e-015 3.18055e-015 -6.76744 10.5471 -21.9292 90 1.98785e-016 3.18055e-015 -41.0977 -12.7015 163.418 -65.8205 -2.38542e-015 -0 44.8207 4.08957 5.76167 90 -7.95139e-016 3.97569e-016 
503.945 76.9807 -206.771 110.114 23.0622 -3.63273 0.492898 1.63235 -2.20309 1.04887 3.24494 -4.42265 1.04887 3.24494 -4.42265 -8.30589e-012 -9.0191e-006 -5.27751e-005 -9.78936 15.2259 -7.5141 -178.146 -6.03456 -72.8865 -1.08184 0.380799 51.3807 -68.3903 -4.77083e-015 3.18055e-015 -46.0629 -41.5991 -35.751 -178.532 5.24885 74.3519 -5.19997 -7.70002 -58.3982 -26.4986 9.54166e-015 1.59028e-015 -27.2957 47.3553 25.2653 -54.3601 4.58327 -162.123 -25.3371 3.18055e-015 6.36111e-015 -7.19222 9.42854 -16.5954 90 -1.98785e-016 3.18055e-015 -38.0999 -16.0339 163.867 -61.6701 -2.38542e-015 2.38542e-015 43.5427 4.75153 2.81166 90 1.19271e-015 -0 
